<svg xmlns="http://www.w3.org/2000/svg" xmlns:xlink="http://www.w3.org/1999/xlink" width="1080" zoomAndPan="magnify" viewBox="0 0 810 389.999986" height="520" preserveAspectRatio="xMidYMid meet" version="1.0"><defs><g/><clipPath id="6f9b968943"><path d="M 248.136719 91.773438 L 781 91.773438 L 781 101.546875 L 248.136719 101.546875 Z M 771.035156 101.546875 L 781 101.546875 L 781 276.574219 L 771.035156 276.574219 Z M 248.136719 101.546875 L 257.914062 101.546875 L 257.914062 276.574219 L 248.136719 276.574219 Z M 248.136719 276.574219 L 781 276.574219 L 781 286.558594 L 248.136719 286.558594 Z M 248.136719 276.574219 " clip-rule="nonzero"/></clipPath><clipPath id="a7482aa3b5"><path d="M 48.398438 91.773438 L 259.917969 91.773438 L 259.917969 286.558594 L 48.398438 286.558594 Z M 48.398438 91.773438 " clip-rule="nonzero"/></clipPath><clipPath id="362d73d8b9"><path d="M 150 163.316406 L 204 163.316406 L 204 275.757812 L 150 275.757812 Z M 150 163.316406 " clip-rule="nonzero"/></clipPath><clipPath id="a174135ad5"><path d="M 68.394531 116.9375 L 236.472656 116.9375 L 236.472656 275.757812 L 68.394531 275.757812 Z M 68.394531 116.9375 " clip-rule="nonzero"/></clipPath></defs><g clip-path="url(#6f9b968943)"><path fill="#caa36d" d="M 248.136719 91.773438 L 780.753906 91.773438 L 780.753906 286.558594 L 248.136719 286.558594 Z M 248.136719 91.773438 " fill-opacity="1" fill-rule="nonzero"/></g><g clip-path="url(#a7482aa3b5)"><path fill="#caa36d" d="M 48.398438 91.773438 L 259.921875 91.773438 L 259.921875 286.558594 L 48.398438 286.558594 Z M 48.398438 91.773438 " fill-opacity="1" fill-rule="nonzero"/></g><g clip-path="url(#362d73d8b9)"><path fill="#ffffff" d="M 170.152344 276.136719 L 170.152344 212.910156 C 170.152344 212.15625 170.53125 211.398438 171.289062 211.019531 L 183.226562 203.636719 C 183.414062 203.445312 183.605469 203.445312 183.792969 203.636719 C 183.984375 203.824219 183.984375 203.824219 183.984375 204.015625 L 183.984375 275.945312 L 202.933594 275.945312 L 203.3125 163.695312 C 203.3125 163.503906 203.3125 163.503906 203.121094 163.316406 C 202.933594 163.128906 202.933594 163.316406 202.742188 163.316406 L 151.769531 195.6875 C 151.011719 196.253906 150.445312 197.011719 150.445312 197.957031 L 150.632812 276.136719 Z M 170.152344 276.136719 " fill-opacity="1" fill-rule="nonzero"/></g><g clip-path="url(#a174135ad5)"><path fill="#ffffff" d="M 236.472656 182.8125 L 235.902344 157.828125 L 235.523438 150.445312 C 235.523438 146.089844 235.523438 141.546875 235.335938 136.816406 C 235.144531 129.433594 231.925781 123.941406 225.671875 119.96875 C 218.851562 115.613281 211.839844 115.804688 204.449219 120.347656 C 188.53125 130 173.371094 139.464844 158.023438 148.742188 C 157.078125 149.121094 156.316406 149.6875 155.558594 150.066406 C 150.066406 153.472656 144.757812 156.691406 139.453125 159.910156 C 135.664062 162.179688 131.875 164.453125 128.085938 166.722656 C 126.949219 167.480469 125.808594 168.238281 124.671875 168.996094 C 109.515625 178.269531 94.542969 187.546875 79.195312 196.441406 C 68.773438 202.5 68.585938 209.882812 68.585938 221.808594 C 68.773438 239.601562 68.773438 257.207031 68.773438 274.054688 L 68.773438 275.945312 L 88.859375 275.945312 L 88.859375 218.96875 C 88.859375 218.210938 89.238281 217.832031 89.617188 217.453125 L 117.472656 200.230469 C 117.664062 226.351562 117.664062 251.71875 117.472656 276.136719 L 137.75 276.136719 L 137.75 189.0625 C 137.75 188.492188 137.9375 187.925781 138.507812 187.546875 L 214.871094 140.601562 C 215.058594 140.410156 215.25 140.410156 215.4375 140.601562 C 215.628906 140.601562 215.816406 140.789062 215.816406 140.980469 C 215.816406 141.167969 216.007812 141.359375 216.007812 141.546875 C 215.816406 186.222656 215.816406 231.082031 215.816406 275.945312 L 236.285156 275.945312 C 236.285156 275.566406 236.285156 275.378906 236.285156 275 C 236.285156 243.765625 236.285156 213.101562 236.285156 183.003906 C 236.472656 183.191406 236.472656 183.003906 236.472656 182.8125 Z M 236.472656 182.8125 " fill-opacity="1" fill-rule="nonzero"/></g><path fill="#ffffff" d="M 236.664062 267.808594 L 236.472656 107.851562 L 210.511719 117.695312 L 223.585938 137.003906 Z M 236.664062 267.808594 " fill-opacity="1" fill-rule="nonzero"/><path fill="#ffffff" d="M 188.34375 130.191406 L 221.691406 109.558594 L 236.664062 101.039062 L 236.472656 116.9375 L 236.285156 144.953125 L 212.40625 133.976562 Z M 188.34375 130.191406 " fill-opacity="1" fill-rule="nonzero"/><path fill="#ffffff" d="M 236.472656 276.136719 L 236.664062 101.039062 L 188.34375 130.191406 L 212.40625 133.976562 L 223.585938 137.003906 L 227.566406 150.632812 L 223.585938 177.511719 Z M 236.472656 276.136719 " fill-opacity="1" fill-rule="nonzero"/><path fill="#ffffff" d="M 68.585938 276.136719 L 68.394531 203.824219 L 79.007812 196.632812 L 95.679688 203.257812 L 87.535156 214.425781 Z M 68.585938 276.136719 " fill-opacity="1" fill-rule="nonzero"/><g fill="#ffffff" fill-opacity="1"><g transform="translate(287.244484, 183.348226)"><g><path d="M 65.953125 -54.015625 L 65.953125 0 L 52.796875 0 L 52.796875 -32.390625 L 40.703125 0 L 30.09375 0 L 17.9375 -32.46875 L 17.9375 0 L 4.765625 0 L 4.765625 -54.015625 L 20.3125 -54.015625 L 35.46875 -16.625 L 50.484375 -54.015625 Z M 65.953125 -54.015625 "/></g></g></g><g fill="#ffffff" fill-opacity="1"><g transform="translate(366.585409, 183.348226)"><g><path d="M 17.9375 -43.484375 L 17.9375 -32.546875 L 35.546875 -32.546875 L 35.546875 -22.390625 L 17.9375 -22.390625 L 17.9375 -10.546875 L 37.859375 -10.546875 L 37.859375 0 L 4.765625 0 L 4.765625 -54.015625 L 37.859375 -54.015625 L 37.859375 -43.484375 Z M 17.9375 -43.484375 "/></g></g></g><g fill="#ffffff" fill-opacity="1"><g transform="translate(416.914551, 183.348226)"><g><path d="M 40.625 -36.9375 C 39.65625 -38.726562 38.257812 -40.097656 36.4375 -41.046875 C 34.613281 -42.003906 32.472656 -42.484375 30.015625 -42.484375 C 25.753906 -42.484375 22.335938 -41.082031 19.765625 -38.28125 C 17.203125 -35.488281 15.921875 -31.757812 15.921875 -27.09375 C 15.921875 -22.113281 17.269531 -18.222656 19.96875 -15.421875 C 22.664062 -12.628906 26.375 -11.234375 31.09375 -11.234375 C 34.320312 -11.234375 37.050781 -12.050781 39.28125 -13.6875 C 41.507812 -15.332031 43.140625 -17.695312 44.171875 -20.78125 L 27.46875 -20.78125 L 27.46875 -30.46875 L 56.09375 -30.46875 L 56.09375 -18.234375 C 55.125 -14.953125 53.472656 -11.898438 51.140625 -9.078125 C 48.804688 -6.253906 45.84375 -3.96875 42.25 -2.21875 C 38.65625 -0.476562 34.601562 0.390625 30.09375 0.390625 C 24.75 0.390625 19.988281 -0.773438 15.8125 -3.109375 C 11.632812 -5.453125 8.378906 -8.695312 6.046875 -12.84375 C 3.710938 -17 2.546875 -21.75 2.546875 -27.09375 C 2.546875 -32.425781 3.710938 -37.179688 6.046875 -41.359375 C 8.378906 -45.546875 11.625 -48.804688 15.78125 -51.140625 C 19.9375 -53.472656 24.679688 -54.640625 30.015625 -54.640625 C 36.472656 -54.640625 41.921875 -53.070312 46.359375 -49.9375 C 50.796875 -46.8125 53.734375 -42.476562 55.171875 -36.9375 Z M 40.625 -36.9375 "/></g></g></g><g fill="#ffffff" fill-opacity="1"><g transform="translate(484.250594, 183.348226)"><g><path d="M 51.5625 -54.015625 L 51.5625 0 L 38.40625 0 L 38.40625 -22.234375 L 17.9375 -22.234375 L 17.9375 0 L 4.765625 0 L 4.765625 -54.015625 L 17.9375 -54.015625 L 17.9375 -32.859375 L 38.40625 -32.859375 L 38.40625 -54.015625 Z M 51.5625 -54.015625 "/></g></g></g><g fill="#ffffff" fill-opacity="1"><g transform="translate(549.201052, 183.348226)"><g><path d="M 38.40625 -9.546875 L 18.234375 -9.546875 L 15 0 L 1.234375 0 L 20.78125 -54.015625 L 36.015625 -54.015625 L 55.5625 0 L 41.625 0 Z M 35.015625 -19.703125 L 28.3125 -39.484375 L 21.703125 -19.703125 Z M 35.015625 -19.703125 "/></g></g></g><g fill="#ffffff" fill-opacity="1"><g transform="translate(614.61324, 183.348226)"><g><path d="M 53.09375 0 L 39.9375 0 L 17.9375 -33.328125 L 17.9375 0 L 4.765625 0 L 4.765625 -54.015625 L 17.9375 -54.015625 L 39.9375 -20.546875 L 39.9375 -54.015625 L 53.09375 -54.015625 Z M 53.09375 0 "/></g></g></g><g fill="#ffffff" fill-opacity="1"><g transform="translate(681.179734, 183.348226)"><g><path d="M 38.40625 -9.546875 L 18.234375 -9.546875 L 15 0 L 1.234375 0 L 20.78125 -54.015625 L 36.015625 -54.015625 L 55.5625 0 L 41.625 0 Z M 35.015625 -19.703125 L 28.3125 -39.484375 L 21.703125 -19.703125 Z M 35.015625 -19.703125 "/></g></g></g><g fill="#ffffff" fill-opacity="1"><g transform="translate(746.612927, 183.348226)"><g/></g></g><g fill="#ffffff" fill-opacity="1"><g transform="translate(296.241859, 249.758791)"><g><path d="M 6.359375 -19.15625 L 6.359375 0 L 1.6875 0 L 1.6875 -19.15625 Z M 6.359375 -19.15625 "/></g></g></g><g fill="#ffffff" fill-opacity="1"><g transform="translate(308.088611, 249.758791)"><g><path d="M 18.828125 0 L 14.171875 0 L 6.359375 -11.8125 L 6.359375 0 L 1.6875 0 L 1.6875 -19.15625 L 6.359375 -19.15625 L 14.171875 -7.28125 L 14.171875 -19.15625 L 18.828125 -19.15625 Z M 18.828125 0 "/></g></g></g><g fill="#ffffff" fill-opacity="1"><g transform="translate(332.407117, 249.758791)"><g><path d="M 15.484375 -19.15625 L 15.484375 -15.421875 L 10.40625 -15.421875 L 10.40625 0 L 5.734375 0 L 5.734375 -15.421875 L 0.65625 -15.421875 L 0.65625 -19.15625 Z M 15.484375 -19.15625 "/></g></g></g><g fill="#ffffff" fill-opacity="1"><g transform="translate(352.331857, 249.758791)"><g><path d="M 6.359375 -15.421875 L 6.359375 -11.546875 L 12.609375 -11.546875 L 12.609375 -7.9375 L 6.359375 -7.9375 L 6.359375 -3.734375 L 13.4375 -3.734375 L 13.4375 0 L 1.6875 0 L 1.6875 -19.15625 L 13.4375 -19.15625 L 13.4375 -15.421875 Z M 6.359375 -15.421875 "/></g></g></g><g fill="#ffffff" fill-opacity="1"><g transform="translate(370.892068, 249.758791)"><g><path d="M 11.46875 0 L 7.484375 -7.234375 L 6.359375 -7.234375 L 6.359375 0 L 1.6875 0 L 1.6875 -19.15625 L 9.53125 -19.15625 C 11.039062 -19.15625 12.328125 -18.890625 13.390625 -18.359375 C 14.453125 -17.835938 15.242188 -17.117188 15.765625 -16.203125 C 16.296875 -15.285156 16.5625 -14.257812 16.5625 -13.125 C 16.5625 -11.851562 16.203125 -10.71875 15.484375 -9.71875 C 14.765625 -8.71875 13.707031 -8.007812 12.3125 -7.59375 L 16.734375 0 Z M 6.359375 -10.53125 L 9.25 -10.53125 C 10.101562 -10.53125 10.742188 -10.738281 11.171875 -11.15625 C 11.597656 -11.582031 11.8125 -12.175781 11.8125 -12.9375 C 11.8125 -13.664062 11.597656 -14.238281 11.171875 -14.65625 C 10.742188 -15.070312 10.101562 -15.28125 9.25 -15.28125 L 6.359375 -15.28125 Z M 6.359375 -10.53125 "/></g></g></g><g fill="#ffffff" fill-opacity="1"><g transform="translate(392.481518, 249.758791)"><g><path d="M 6.359375 -19.15625 L 6.359375 0 L 1.6875 0 L 1.6875 -19.15625 Z M 6.359375 -19.15625 "/></g></g></g><g fill="#ffffff" fill-opacity="1"><g transform="translate(404.328273, 249.758791)"><g><path d="M 10.75 0.1875 C 8.945312 0.1875 7.296875 -0.226562 5.796875 -1.0625 C 4.296875 -1.894531 3.101562 -3.0625 2.21875 -4.5625 C 1.34375 -6.070312 0.90625 -7.765625 0.90625 -9.640625 C 0.90625 -11.515625 1.34375 -13.195312 2.21875 -14.6875 C 3.101562 -16.175781 4.296875 -17.335938 5.796875 -18.171875 C 7.296875 -19.015625 8.945312 -19.4375 10.75 -19.4375 C 12.550781 -19.4375 14.203125 -19.015625 15.703125 -18.171875 C 17.210938 -17.335938 18.394531 -16.175781 19.25 -14.6875 C 20.113281 -13.195312 20.546875 -11.515625 20.546875 -9.640625 C 20.546875 -7.765625 20.109375 -6.070312 19.234375 -4.5625 C 18.367188 -3.0625 17.1875 -1.894531 15.6875 -1.0625 C 14.195312 -0.226562 12.550781 0.1875 10.75 0.1875 Z M 10.75 -4.0625 C 12.28125 -4.0625 13.503906 -4.570312 14.421875 -5.59375 C 15.347656 -6.613281 15.8125 -7.960938 15.8125 -9.640625 C 15.8125 -11.328125 15.347656 -12.675781 14.421875 -13.6875 C 13.503906 -14.695312 12.28125 -15.203125 10.75 -15.203125 C 9.207031 -15.203125 7.972656 -14.703125 7.046875 -13.703125 C 6.128906 -12.703125 5.671875 -11.347656 5.671875 -9.640625 C 5.671875 -7.941406 6.128906 -6.585938 7.046875 -5.578125 C 7.972656 -4.566406 9.207031 -4.0625 10.75 -4.0625 Z M 10.75 -4.0625 "/></g></g></g><g fill="#ffffff" fill-opacity="1"><g transform="translate(429.574643, 249.758791)"><g><path d="M 11.46875 0 L 7.484375 -7.234375 L 6.359375 -7.234375 L 6.359375 0 L 1.6875 0 L 1.6875 -19.15625 L 9.53125 -19.15625 C 11.039062 -19.15625 12.328125 -18.890625 13.390625 -18.359375 C 14.453125 -17.835938 15.242188 -17.117188 15.765625 -16.203125 C 16.296875 -15.285156 16.5625 -14.257812 16.5625 -13.125 C 16.5625 -11.851562 16.203125 -10.71875 15.484375 -9.71875 C 14.765625 -8.71875 13.707031 -8.007812 12.3125 -7.59375 L 16.734375 0 Z M 6.359375 -10.53125 L 9.25 -10.53125 C 10.101562 -10.53125 10.742188 -10.738281 11.171875 -11.15625 C 11.597656 -11.582031 11.8125 -12.175781 11.8125 -12.9375 C 11.8125 -13.664062 11.597656 -14.238281 11.171875 -14.65625 C 10.742188 -15.070312 10.101562 -15.28125 9.25 -15.28125 L 6.359375 -15.28125 Z M 6.359375 -10.53125 "/></g></g></g><g fill="#ffffff" fill-opacity="1"><g transform="translate(451.164093, 249.758791)"><g/></g></g><g fill="#ffffff" fill-opacity="1"><g transform="translate(460.745734, 249.758791)"><g><path d="M 16.34375 0 L 14.578125 -1.71875 C 12.804688 -0.375 10.695312 0.296875 8.25 0.296875 C 6.769531 0.296875 5.484375 0.0546875 4.390625 -0.421875 C 3.296875 -0.898438 2.453125 -1.582031 1.859375 -2.46875 C 1.273438 -3.351562 0.984375 -4.382812 0.984375 -5.5625 C 0.984375 -6.769531 1.304688 -7.859375 1.953125 -8.828125 C 2.597656 -9.804688 3.566406 -10.601562 4.859375 -11.21875 C 4.390625 -11.800781 4.050781 -12.359375 3.84375 -12.890625 C 3.644531 -13.429688 3.546875 -14.019531 3.546875 -14.65625 C 3.546875 -15.5625 3.78125 -16.390625 4.25 -17.140625 C 4.726562 -17.890625 5.414062 -18.476562 6.3125 -18.90625 C 7.21875 -19.332031 8.289062 -19.546875 9.53125 -19.546875 C 10.78125 -19.546875 11.84375 -19.316406 12.71875 -18.859375 C 13.59375 -18.398438 14.25 -17.789062 14.6875 -17.03125 C 15.125 -16.269531 15.320312 -15.429688 15.28125 -14.515625 L 10.890625 -14.515625 C 10.910156 -15.015625 10.785156 -15.394531 10.515625 -15.65625 C 10.253906 -15.914062 9.90625 -16.046875 9.46875 -16.046875 C 9.03125 -16.046875 8.664062 -15.914062 8.375 -15.65625 C 8.082031 -15.40625 7.9375 -15.082031 7.9375 -14.6875 C 7.9375 -14.300781 8.0625 -13.898438 8.3125 -13.484375 C 8.5625 -13.066406 8.945312 -12.582031 9.46875 -12.03125 L 14.140625 -7.484375 C 14.171875 -7.566406 14.21875 -7.671875 14.28125 -7.796875 C 14.351562 -7.929688 14.425781 -8.082031 14.5 -8.25 L 15.5 -9.96875 L 20.171875 -9.96875 L 18.859375 -7.59375 C 18.367188 -6.519531 17.804688 -5.5 17.171875 -4.53125 L 21.78125 0 Z M 8.46875 -3.46875 C 9.6875 -3.46875 10.765625 -3.8125 11.703125 -4.5 L 7.453125 -8.625 C 6.140625 -7.945312 5.484375 -7.035156 5.484375 -5.890625 C 5.484375 -5.203125 5.75 -4.625 6.28125 -4.15625 C 6.820312 -3.695312 7.550781 -3.46875 8.46875 -3.46875 Z M 8.46875 -3.46875 "/></g></g></g><g fill="#ffffff" fill-opacity="1"><g transform="translate(486.319584, 249.758791)"><g/></g></g><g fill="#ffffff" fill-opacity="1"><g transform="translate(495.901224, 249.758791)"><g><path d="M 14.171875 -19.15625 L 14.171875 -15.421875 L 6.359375 -15.421875 L 6.359375 -11.375 L 12.203125 -11.375 L 12.203125 -7.75 L 6.359375 -7.75 L 6.359375 0 L 1.6875 0 L 1.6875 -19.15625 Z M 14.171875 -19.15625 "/></g></g></g><g fill="#ffffff" fill-opacity="1"><g transform="translate(514.625179, 249.758791)"><g><path d="M 10.75 0.1875 C 8.945312 0.1875 7.296875 -0.226562 5.796875 -1.0625 C 4.296875 -1.894531 3.101562 -3.0625 2.21875 -4.5625 C 1.34375 -6.070312 0.90625 -7.765625 0.90625 -9.640625 C 0.90625 -11.515625 1.34375 -13.195312 2.21875 -14.6875 C 3.101562 -16.175781 4.296875 -17.335938 5.796875 -18.171875 C 7.296875 -19.015625 8.945312 -19.4375 10.75 -19.4375 C 12.550781 -19.4375 14.203125 -19.015625 15.703125 -18.171875 C 17.210938 -17.335938 18.394531 -16.175781 19.25 -14.6875 C 20.113281 -13.195312 20.546875 -11.515625 20.546875 -9.640625 C 20.546875 -7.765625 20.109375 -6.070312 19.234375 -4.5625 C 18.367188 -3.0625 17.1875 -1.894531 15.6875 -1.0625 C 14.195312 -0.226562 12.550781 0.1875 10.75 0.1875 Z M 10.75 -4.0625 C 12.28125 -4.0625 13.503906 -4.570312 14.421875 -5.59375 C 15.347656 -6.613281 15.8125 -7.960938 15.8125 -9.640625 C 15.8125 -11.328125 15.347656 -12.675781 14.421875 -13.6875 C 13.503906 -14.695312 12.28125 -15.203125 10.75 -15.203125 C 9.207031 -15.203125 7.972656 -14.703125 7.046875 -13.703125 C 6.128906 -12.703125 5.671875 -11.347656 5.671875 -9.640625 C 5.671875 -7.941406 6.128906 -6.585938 7.046875 -5.578125 C 7.972656 -4.566406 9.207031 -4.0625 10.75 -4.0625 Z M 10.75 -4.0625 "/></g></g></g><g fill="#ffffff" fill-opacity="1"><g transform="translate(539.871549, 249.758791)"><g><path d="M 6.28125 -19.15625 L 6.28125 -7.703125 C 6.28125 -6.554688 6.5625 -5.671875 7.125 -5.046875 C 7.6875 -4.429688 8.515625 -4.125 9.609375 -4.125 C 10.703125 -4.125 11.539062 -4.429688 12.125 -5.046875 C 12.707031 -5.671875 13 -6.554688 13 -7.703125 L 13 -19.15625 L 17.65625 -19.15625 L 17.65625 -7.71875 C 17.65625 -6.007812 17.289062 -4.5625 16.5625 -3.375 C 15.84375 -2.195312 14.867188 -1.304688 13.640625 -0.703125 C 12.410156 -0.109375 11.039062 0.1875 9.53125 0.1875 C 8.019531 0.1875 6.664062 -0.101562 5.46875 -0.6875 C 4.28125 -1.28125 3.335938 -2.171875 2.640625 -3.359375 C 1.953125 -4.554688 1.609375 -6.007812 1.609375 -7.71875 L 1.609375 -19.15625 Z M 6.28125 -19.15625 "/></g></g></g><g fill="#ffffff" fill-opacity="1"><g transform="translate(562.907399, 249.758791)"><g><path d="M 18.828125 0 L 14.171875 0 L 6.359375 -11.8125 L 6.359375 0 L 1.6875 0 L 1.6875 -19.15625 L 6.359375 -19.15625 L 14.171875 -7.28125 L 14.171875 -19.15625 L 18.828125 -19.15625 Z M 18.828125 0 "/></g></g></g><g fill="#ffffff" fill-opacity="1"><g transform="translate(587.225894, 249.758791)"><g><path d="M 8.875 -19.15625 C 10.894531 -19.15625 12.660156 -18.753906 14.171875 -17.953125 C 15.679688 -17.160156 16.847656 -16.039062 17.671875 -14.59375 C 18.503906 -13.144531 18.921875 -11.472656 18.921875 -9.578125 C 18.921875 -7.703125 18.503906 -6.035156 17.671875 -4.578125 C 16.847656 -3.128906 15.675781 -2.003906 14.15625 -1.203125 C 12.632812 -0.398438 10.875 0 8.875 0 L 1.6875 0 L 1.6875 -19.15625 Z M 8.578125 -4.046875 C 10.335938 -4.046875 11.707031 -4.523438 12.6875 -5.484375 C 13.675781 -6.453125 14.171875 -7.816406 14.171875 -9.578125 C 14.171875 -11.347656 13.675781 -12.722656 12.6875 -13.703125 C 11.707031 -14.679688 10.335938 -15.171875 8.578125 -15.171875 L 6.359375 -15.171875 L 6.359375 -4.046875 Z M 8.578125 -4.046875 "/></g></g></g><g fill="#ffffff" fill-opacity="1"><g transform="translate(610.862125, 249.758791)"><g><path d="M 13.625 -3.390625 L 6.46875 -3.390625 L 5.328125 0 L 0.4375 0 L 7.375 -19.15625 L 12.78125 -19.15625 L 19.703125 0 L 14.765625 0 Z M 12.421875 -6.984375 L 10.046875 -14 L 7.703125 -6.984375 Z M 12.421875 -6.984375 "/></g></g></g><g fill="#ffffff" fill-opacity="1"><g transform="translate(634.771255, 249.758791)"><g><path d="M 15.484375 -19.15625 L 15.484375 -15.421875 L 10.40625 -15.421875 L 10.40625 0 L 5.734375 0 L 5.734375 -15.421875 L 0.65625 -15.421875 L 0.65625 -19.15625 Z M 15.484375 -19.15625 "/></g></g></g><g fill="#ffffff" fill-opacity="1"><g transform="translate(654.695985, 249.758791)"><g><path d="M 6.359375 -19.15625 L 6.359375 0 L 1.6875 0 L 1.6875 -19.15625 Z M 6.359375 -19.15625 "/></g></g></g><g fill="#ffffff" fill-opacity="1"><g transform="translate(666.542726, 249.758791)"><g><path d="M 10.75 0.1875 C 8.945312 0.1875 7.296875 -0.226562 5.796875 -1.0625 C 4.296875 -1.894531 3.101562 -3.0625 2.21875 -4.5625 C 1.34375 -6.070312 0.90625 -7.765625 0.90625 -9.640625 C 0.90625 -11.515625 1.34375 -13.195312 2.21875 -14.6875 C 3.101562 -16.175781 4.296875 -17.335938 5.796875 -18.171875 C 7.296875 -19.015625 8.945312 -19.4375 10.75 -19.4375 C 12.550781 -19.4375 14.203125 -19.015625 15.703125 -18.171875 C 17.210938 -17.335938 18.394531 -16.175781 19.25 -14.6875 C 20.113281 -13.195312 20.546875 -11.515625 20.546875 -9.640625 C 20.546875 -7.765625 20.109375 -6.070312 19.234375 -4.5625 C 18.367188 -3.0625 17.1875 -1.894531 15.6875 -1.0625 C 14.195312 -0.226562 12.550781 0.1875 10.75 0.1875 Z M 10.75 -4.0625 C 12.28125 -4.0625 13.503906 -4.570312 14.421875 -5.59375 C 15.347656 -6.613281 15.8125 -7.960938 15.8125 -9.640625 C 15.8125 -11.328125 15.347656 -12.675781 14.421875 -13.6875 C 13.503906 -14.695312 12.28125 -15.203125 10.75 -15.203125 C 9.207031 -15.203125 7.972656 -14.703125 7.046875 -13.703125 C 6.128906 -12.703125 5.671875 -11.347656 5.671875 -9.640625 C 5.671875 -7.941406 6.128906 -6.585938 7.046875 -5.578125 C 7.972656 -4.566406 9.207031 -4.0625 10.75 -4.0625 Z M 10.75 -4.0625 "/></g></g></g><g fill="#ffffff" fill-opacity="1"><g transform="translate(691.789082, 249.758791)"><g><path d="M 18.828125 0 L 14.171875 0 L 6.359375 -11.8125 L 6.359375 0 L 1.6875 0 L 1.6875 -19.15625 L 6.359375 -19.15625 L 14.171875 -7.28125 L 14.171875 -19.15625 L 18.828125 -19.15625 Z M 18.828125 0 "/></g></g></g><g fill="#ffffff" fill-opacity="1"><g transform="translate(716.107577, 249.758791)"><g><path d="M 8.625 0.1875 C 7.226562 0.1875 5.972656 -0.0351562 4.859375 -0.484375 C 3.742188 -0.941406 2.851562 -1.613281 2.1875 -2.5 C 1.53125 -3.394531 1.179688 -4.472656 1.140625 -5.734375 L 6.109375 -5.734375 C 6.179688 -5.023438 6.425781 -4.484375 6.84375 -4.109375 C 7.269531 -3.734375 7.816406 -3.546875 8.484375 -3.546875 C 9.179688 -3.546875 9.726562 -3.703125 10.125 -4.015625 C 10.53125 -4.335938 10.734375 -4.78125 10.734375 -5.34375 C 10.734375 -5.820312 10.570312 -6.210938 10.25 -6.515625 C 9.925781 -6.828125 9.53125 -7.082031 9.0625 -7.28125 C 8.601562 -7.488281 7.945312 -7.71875 7.09375 -7.96875 C 5.851562 -8.351562 4.84375 -8.734375 4.0625 -9.109375 C 3.28125 -9.492188 2.609375 -10.054688 2.046875 -10.796875 C 1.484375 -11.546875 1.203125 -12.523438 1.203125 -13.734375 C 1.203125 -15.515625 1.847656 -16.910156 3.140625 -17.921875 C 4.429688 -18.929688 6.113281 -19.4375 8.1875 -19.4375 C 10.300781 -19.4375 12.003906 -18.929688 13.296875 -17.921875 C 14.585938 -16.910156 15.28125 -15.503906 15.375 -13.703125 L 10.3125 -13.703125 C 10.28125 -14.316406 10.054688 -14.800781 9.640625 -15.15625 C 9.222656 -15.519531 8.6875 -15.703125 8.03125 -15.703125 C 7.457031 -15.703125 7 -15.550781 6.65625 -15.25 C 6.3125 -14.945312 6.140625 -14.515625 6.140625 -13.953125 C 6.140625 -13.328125 6.429688 -12.84375 7.015625 -12.5 C 7.597656 -12.15625 8.507812 -11.78125 9.75 -11.375 C 10.976562 -10.957031 11.976562 -10.554688 12.75 -10.171875 C 13.53125 -9.796875 14.203125 -9.242188 14.765625 -8.515625 C 15.328125 -7.785156 15.609375 -6.847656 15.609375 -5.703125 C 15.609375 -4.609375 15.332031 -3.613281 14.78125 -2.71875 C 14.226562 -1.832031 13.421875 -1.125 12.359375 -0.59375 C 11.304688 -0.0703125 10.0625 0.1875 8.625 0.1875 Z M 8.625 0.1875 "/></g></g></g><g fill="#ffffff" fill-opacity="1"><g transform="translate(348.101774, 308.122563)"><g><path d="M 1.671875 0 L 1.671875 -13.875 L 4.8125 -13.875 L 4.8125 0 Z M 1.671875 0 "/></g></g></g><g fill="#ffffff" fill-opacity="1"><g transform="translate(357.339757, 308.122563)"><g><path d="M 1.5 0 L 1.5 -10.40625 L 3.75 -10.40625 L 4.0625 -9.234375 C 4.488281 -9.722656 5 -10.085938 5.59375 -10.328125 C 6.195312 -10.566406 6.84375 -10.6875 7.53125 -10.6875 C 8.894531 -10.6875 9.960938 -10.265625 10.734375 -9.421875 C 11.503906 -8.578125 11.890625 -7.429688 11.890625 -5.984375 L 11.890625 0 L 8.890625 0 L 8.890625 -5.671875 C 8.890625 -6.441406 8.707031 -7.039062 8.34375 -7.46875 C 7.976562 -7.894531 7.472656 -8.109375 6.828125 -8.109375 C 6.140625 -8.109375 5.582031 -7.867188 5.15625 -7.390625 C 4.726562 -6.921875 4.515625 -6.273438 4.515625 -5.453125 L 4.515625 0 Z M 1.5 0 "/></g></g></g><g fill="#ffffff" fill-opacity="1"><g transform="translate(373.298082, 308.122563)"><g><path d="M 1.5 0 L 1.5 -10.40625 L 3.75 -10.40625 L 4.0625 -9.234375 C 4.488281 -9.722656 5 -10.085938 5.59375 -10.328125 C 6.195312 -10.566406 6.84375 -10.6875 7.53125 -10.6875 C 8.894531 -10.6875 9.960938 -10.265625 10.734375 -9.421875 C 11.503906 -8.578125 11.890625 -7.429688 11.890625 -5.984375 L 11.890625 0 L 8.890625 0 L 8.890625 -5.671875 C 8.890625 -6.441406 8.707031 -7.039062 8.34375 -7.46875 C 7.976562 -7.894531 7.472656 -8.109375 6.828125 -8.109375 C 6.140625 -8.109375 5.582031 -7.867188 5.15625 -7.390625 C 4.726562 -6.921875 4.515625 -6.273438 4.515625 -5.453125 L 4.515625 0 Z M 1.5 0 "/></g></g></g><g fill="#ffffff" fill-opacity="1"><g transform="translate(389.256409, 308.122563)"><g><path d="M 6.625 0.28125 C 5.46875 0.28125 4.453125 0.0507812 3.578125 -0.40625 C 2.703125 -0.875 2.015625 -1.519531 1.515625 -2.34375 C 1.015625 -3.175781 0.765625 -4.132812 0.765625 -5.21875 C 0.765625 -6.300781 1.015625 -7.25 1.515625 -8.0625 C 2.015625 -8.882812 2.703125 -9.523438 3.578125 -9.984375 C 4.453125 -10.453125 5.46875 -10.6875 6.625 -10.6875 C 7.769531 -10.6875 8.78125 -10.453125 9.65625 -9.984375 C 10.539062 -9.523438 11.226562 -8.882812 11.71875 -8.0625 C 12.207031 -7.25 12.453125 -6.300781 12.453125 -5.21875 C 12.453125 -4.132812 12.207031 -3.175781 11.71875 -2.34375 C 11.226562 -1.519531 10.539062 -0.875 9.65625 -0.40625 C 8.78125 0.0507812 7.769531 0.28125 6.625 0.28125 Z M 3.75 -5.21875 C 3.75 -4.375 4.015625 -3.675781 4.546875 -3.125 C 5.085938 -2.582031 5.78125 -2.3125 6.625 -2.3125 C 7.46875 -2.3125 8.15625 -2.582031 8.6875 -3.125 C 9.21875 -3.675781 9.484375 -4.375 9.484375 -5.21875 C 9.484375 -6.070312 9.21875 -6.765625 8.6875 -7.296875 C 8.15625 -7.835938 7.46875 -8.109375 6.625 -8.109375 C 5.78125 -8.109375 5.085938 -7.835938 4.546875 -7.296875 C 4.015625 -6.765625 3.75 -6.070312 3.75 -5.21875 Z M 3.75 -5.21875 "/></g></g></g><g fill="#ffffff" fill-opacity="1"><g transform="translate(405.234571, 308.122563)"><g><path d="M 4.5 0 L 0.171875 -10.40625 L 3.46875 -10.40625 L 4.640625 -7.140625 L 6.03125 -3.609375 L 7.390625 -7.140625 L 8.578125 -10.40625 L 11.859375 -10.40625 L 7.515625 0 Z M 4.5 0 "/></g></g></g><g fill="#ffffff" fill-opacity="1"><g transform="translate(420.023297, 308.122563)"><g><path d="M 4.984375 0.203125 C 3.753906 0.203125 2.78125 -0.0820312 2.0625 -0.65625 C 1.34375 -1.238281 0.984375 -2.03125 0.984375 -3.03125 C 0.984375 -4 1.304688 -4.769531 1.953125 -5.34375 C 2.597656 -5.914062 3.460938 -6.203125 4.546875 -6.203125 L 8.3125 -6.203125 L 8.3125 -6.6875 C 8.3125 -7.195312 8.125 -7.609375 7.75 -7.921875 C 7.382812 -8.234375 6.90625 -8.390625 6.3125 -8.390625 C 5.820312 -8.390625 5.40625 -8.273438 5.0625 -8.046875 C 4.71875 -7.828125 4.5 -7.53125 4.40625 -7.15625 L 1.5 -7.15625 C 1.6875 -8.289062 2.195312 -9.160156 3.03125 -9.765625 C 3.875 -10.378906 4.957031 -10.6875 6.28125 -10.6875 C 7.84375 -10.6875 9.0625 -10.289062 9.9375 -9.5 C 10.820312 -8.71875 11.265625 -7.640625 11.265625 -6.265625 L 11.265625 0 L 9.015625 0 L 8.6875 -1.203125 C 7.769531 -0.265625 6.535156 0.203125 4.984375 0.203125 Z M 3.96875 -3.15625 C 3.96875 -2.800781 4.117188 -2.515625 4.421875 -2.296875 C 4.734375 -2.078125 5.148438 -1.96875 5.671875 -1.96875 C 6.421875 -1.96875 7.039062 -2.179688 7.53125 -2.609375 C 8.03125 -3.046875 8.296875 -3.617188 8.328125 -4.328125 L 5.46875 -4.328125 C 5.019531 -4.328125 4.65625 -4.21875 4.375 -4 C 4.101562 -3.789062 3.96875 -3.507812 3.96875 -3.15625 Z M 3.96875 -3.15625 "/></g></g></g><g fill="#ffffff" fill-opacity="1"><g transform="translate(435.347252, 308.122563)"><g><path d="M 6.53125 0 C 5.207031 0 4.191406 -0.335938 3.484375 -1.015625 C 2.773438 -1.703125 2.421875 -2.679688 2.421875 -3.953125 L 2.421875 -7.953125 L 0.390625 -7.953125 L 0.390625 -10.40625 L 1.328125 -10.40625 C 1.898438 -10.40625 2.285156 -10.5 2.484375 -10.6875 C 2.691406 -10.875 2.835938 -11.234375 2.921875 -11.765625 L 3.09375 -13.109375 L 5.4375 -13.109375 L 5.4375 -10.40625 L 8.28125 -10.40625 L 8.28125 -7.953125 L 5.4375 -7.953125 L 5.4375 -4.40625 C 5.4375 -3.21875 6.015625 -2.625 7.171875 -2.625 L 8.421875 -2.625 L 8.421875 0 Z M 6.53125 0 "/></g></g></g><g fill="#ffffff" fill-opacity="1"><g transform="translate(447.360593, 308.122563)"><g><path d="M 1.5 0 L 1.5 -10.40625 L 4.515625 -10.40625 L 4.515625 0 Z M 1.078125 -13.78125 C 1.078125 -14.332031 1.253906 -14.785156 1.609375 -15.140625 C 1.972656 -15.492188 2.441406 -15.671875 3.015625 -15.671875 C 3.597656 -15.671875 4.066406 -15.492188 4.421875 -15.140625 C 4.773438 -14.785156 4.953125 -14.332031 4.953125 -13.78125 C 4.953125 -13.226562 4.773438 -12.773438 4.421875 -12.421875 C 4.066406 -12.066406 3.597656 -11.890625 3.015625 -11.890625 C 2.441406 -11.890625 1.972656 -12.066406 1.609375 -12.421875 C 1.253906 -12.773438 1.078125 -13.226562 1.078125 -13.78125 Z M 1.078125 -13.78125 "/></g></g></g><g fill="#ffffff" fill-opacity="1"><g transform="translate(456.142629, 308.122563)"><g><path d="M 6.625 0.28125 C 5.46875 0.28125 4.453125 0.0507812 3.578125 -0.40625 C 2.703125 -0.875 2.015625 -1.519531 1.515625 -2.34375 C 1.015625 -3.175781 0.765625 -4.132812 0.765625 -5.21875 C 0.765625 -6.300781 1.015625 -7.25 1.515625 -8.0625 C 2.015625 -8.882812 2.703125 -9.523438 3.578125 -9.984375 C 4.453125 -10.453125 5.46875 -10.6875 6.625 -10.6875 C 7.769531 -10.6875 8.78125 -10.453125 9.65625 -9.984375 C 10.539062 -9.523438 11.226562 -8.882812 11.71875 -8.0625 C 12.207031 -7.25 12.453125 -6.300781 12.453125 -5.21875 C 12.453125 -4.132812 12.207031 -3.175781 11.71875 -2.34375 C 11.226562 -1.519531 10.539062 -0.875 9.65625 -0.40625 C 8.78125 0.0507812 7.769531 0.28125 6.625 0.28125 Z M 3.75 -5.21875 C 3.75 -4.375 4.015625 -3.675781 4.546875 -3.125 C 5.085938 -2.582031 5.78125 -2.3125 6.625 -2.3125 C 7.46875 -2.3125 8.15625 -2.582031 8.6875 -3.125 C 9.21875 -3.675781 9.484375 -4.375 9.484375 -5.21875 C 9.484375 -6.070312 9.21875 -6.765625 8.6875 -7.296875 C 8.15625 -7.835938 7.46875 -8.109375 6.625 -8.109375 C 5.78125 -8.109375 5.085938 -7.835938 4.546875 -7.296875 C 4.015625 -6.765625 3.75 -6.070312 3.75 -5.21875 Z M 3.75 -5.21875 "/></g></g></g><g fill="#ffffff" fill-opacity="1"><g transform="translate(472.120791, 308.122563)"><g><path d="M 1.5 0 L 1.5 -10.40625 L 3.75 -10.40625 L 4.0625 -9.234375 C 4.488281 -9.722656 5 -10.085938 5.59375 -10.328125 C 6.195312 -10.566406 6.84375 -10.6875 7.53125 -10.6875 C 8.894531 -10.6875 9.960938 -10.265625 10.734375 -9.421875 C 11.503906 -8.578125 11.890625 -7.429688 11.890625 -5.984375 L 11.890625 0 L 8.890625 0 L 8.890625 -5.671875 C 8.890625 -6.441406 8.707031 -7.039062 8.34375 -7.46875 C 7.976562 -7.894531 7.472656 -8.109375 6.828125 -8.109375 C 6.140625 -8.109375 5.582031 -7.867188 5.15625 -7.390625 C 4.726562 -6.921875 4.515625 -6.273438 4.515625 -5.453125 L 4.515625 0 Z M 1.5 0 "/></g></g></g><g fill="#ffffff" fill-opacity="1"><g transform="translate(488.079115, 308.122563)"><g/></g></g><g fill="#ffffff" fill-opacity="1"><g transform="translate(495.493291, 308.122563)"><g><path d="M 1.671875 0 L 1.671875 -13.875 L 4.34375 -13.875 L 9.28125 -6.6875 L 14.203125 -13.875 L 16.859375 -13.875 L 16.859375 0 L 13.71875 0 L 13.71875 -8.34375 L 10.34375 -3.4375 L 8.171875 -3.4375 L 4.796875 -8.375 L 4.796875 0 Z M 1.671875 0 "/></g></g></g><g fill="#ffffff" fill-opacity="1"><g transform="translate(516.764477, 308.122563)"><g><path d="M 6.421875 0.28125 C 5.316406 0.28125 4.335938 0.0507812 3.484375 -0.40625 C 2.628906 -0.875 1.960938 -1.519531 1.484375 -2.34375 C 1.003906 -3.175781 0.765625 -4.132812 0.765625 -5.21875 C 0.765625 -6.300781 1.003906 -7.25 1.484375 -8.0625 C 1.972656 -8.882812 2.644531 -9.523438 3.5 -9.984375 C 4.351562 -10.453125 5.34375 -10.6875 6.46875 -10.6875 C 7.65625 -10.6875 8.679688 -10.421875 9.546875 -9.890625 C 10.410156 -9.359375 11.070312 -8.617188 11.53125 -7.671875 C 11.988281 -6.722656 12.179688 -5.613281 12.109375 -4.34375 L 3.765625 -4.34375 C 3.910156 -3.625 4.226562 -3.078125 4.71875 -2.703125 C 5.207031 -2.328125 5.796875 -2.140625 6.484375 -2.140625 C 6.984375 -2.140625 7.441406 -2.234375 7.859375 -2.421875 C 8.273438 -2.617188 8.609375 -2.890625 8.859375 -3.234375 L 11.921875 -3.234375 C 11.472656 -2.140625 10.765625 -1.28125 9.796875 -0.65625 C 8.828125 -0.03125 7.703125 0.28125 6.421875 0.28125 Z M 3.78125 -6.25 L 9.203125 -6.25 C 9.023438 -6.882812 8.703125 -7.378906 8.234375 -7.734375 C 7.765625 -8.097656 7.179688 -8.28125 6.484375 -8.28125 C 5.828125 -8.28125 5.253906 -8.097656 4.765625 -7.734375 C 4.285156 -7.378906 3.957031 -6.882812 3.78125 -6.25 Z M 3.78125 -6.25 "/></g></g></g><g fill="#ffffff" fill-opacity="1"><g transform="translate(532.385803, 308.122563)"><g><path d="M 6.421875 0.28125 C 5.316406 0.28125 4.335938 0.0507812 3.484375 -0.40625 C 2.628906 -0.875 1.960938 -1.519531 1.484375 -2.34375 C 1.003906 -3.175781 0.765625 -4.132812 0.765625 -5.21875 C 0.765625 -6.300781 1.003906 -7.25 1.484375 -8.0625 C 1.972656 -8.882812 2.644531 -9.523438 3.5 -9.984375 C 4.351562 -10.453125 5.34375 -10.6875 6.46875 -10.6875 C 7.65625 -10.6875 8.679688 -10.421875 9.546875 -9.890625 C 10.410156 -9.359375 11.070312 -8.617188 11.53125 -7.671875 C 11.988281 -6.722656 12.179688 -5.613281 12.109375 -4.34375 L 3.765625 -4.34375 C 3.910156 -3.625 4.226562 -3.078125 4.71875 -2.703125 C 5.207031 -2.328125 5.796875 -2.140625 6.484375 -2.140625 C 6.984375 -2.140625 7.441406 -2.234375 7.859375 -2.421875 C 8.273438 -2.617188 8.609375 -2.890625 8.859375 -3.234375 L 11.921875 -3.234375 C 11.472656 -2.140625 10.765625 -1.28125 9.796875 -0.65625 C 8.828125 -0.03125 7.703125 0.28125 6.421875 0.28125 Z M 3.78125 -6.25 L 9.203125 -6.25 C 9.023438 -6.882812 8.703125 -7.378906 8.234375 -7.734375 C 7.765625 -8.097656 7.179688 -8.28125 6.484375 -8.28125 C 5.828125 -8.28125 5.253906 -8.097656 4.765625 -7.734375 C 4.285156 -7.378906 3.957031 -6.882812 3.78125 -6.25 Z M 3.78125 -6.25 "/></g></g></g><g fill="#ffffff" fill-opacity="1"><g transform="translate(548.007129, 308.122563)"><g><path d="M 6.53125 0 C 5.207031 0 4.191406 -0.335938 3.484375 -1.015625 C 2.773438 -1.703125 2.421875 -2.679688 2.421875 -3.953125 L 2.421875 -7.953125 L 0.390625 -7.953125 L 0.390625 -10.40625 L 1.328125 -10.40625 C 1.898438 -10.40625 2.285156 -10.5 2.484375 -10.6875 C 2.691406 -10.875 2.835938 -11.234375 2.921875 -11.765625 L 3.09375 -13.109375 L 5.4375 -13.109375 L 5.4375 -10.40625 L 8.28125 -10.40625 L 8.28125 -7.953125 L 5.4375 -7.953125 L 5.4375 -4.40625 C 5.4375 -3.21875 6.015625 -2.625 7.171875 -2.625 L 8.421875 -2.625 L 8.421875 0 Z M 6.53125 0 "/></g></g></g><g fill="#ffffff" fill-opacity="1"><g transform="translate(560.020483, 308.122563)"><g><path d="M 5.515625 0.28125 C 4.554688 0.28125 3.722656 0.128906 3.015625 -0.171875 C 2.316406 -0.484375 1.769531 -0.910156 1.375 -1.453125 C 0.988281 -1.992188 0.796875 -2.625 0.796875 -3.34375 L 3.75 -3.34375 C 3.757812 -2.925781 3.921875 -2.59375 4.234375 -2.34375 C 4.554688 -2.09375 4.992188 -1.96875 5.546875 -1.96875 C 6.023438 -1.96875 6.394531 -2.054688 6.65625 -2.234375 C 6.925781 -2.410156 7.0625 -2.648438 7.0625 -2.953125 C 7.0625 -3.285156 6.878906 -3.5625 6.515625 -3.78125 C 6.160156 -4 5.582031 -4.171875 4.78125 -4.296875 C 3.457031 -4.535156 2.484375 -4.921875 1.859375 -5.453125 C 1.242188 -5.984375 0.9375 -6.675781 0.9375 -7.53125 C 0.9375 -8.550781 1.316406 -9.332031 2.078125 -9.875 C 2.835938 -10.414062 3.914062 -10.6875 5.3125 -10.6875 C 6.695312 -10.6875 7.78125 -10.390625 8.5625 -9.796875 C 9.351562 -9.203125 9.785156 -8.351562 9.859375 -7.25 L 6.984375 -7.25 C 6.953125 -7.65625 6.785156 -7.960938 6.484375 -8.171875 C 6.191406 -8.390625 5.796875 -8.5 5.296875 -8.5 C 4.847656 -8.5 4.492188 -8.410156 4.234375 -8.234375 C 3.972656 -8.066406 3.84375 -7.832031 3.84375 -7.53125 C 3.84375 -7.21875 4.007812 -6.972656 4.34375 -6.796875 C 4.6875 -6.617188 5.300781 -6.4375 6.1875 -6.25 C 8.75 -5.726562 10.03125 -4.625 10.03125 -2.9375 C 10.03125 -1.945312 9.628906 -1.160156 8.828125 -0.578125 C 8.035156 -0.00390625 6.929688 0.28125 5.515625 0.28125 Z M 5.515625 0.28125 "/></g></g></g><g fill="#ffffff" fill-opacity="1"><g transform="translate(573.619747, 308.122563)"><g/></g></g><g fill="#ffffff" fill-opacity="1"><g transform="translate(581.033923, 308.122563)"><g><path d="M 5 0 L 5 -10.921875 L 0.59375 -10.921875 L 0.59375 -13.875 L 12.546875 -13.875 L 12.546875 -10.921875 L 8.15625 -10.921875 L 8.15625 0 Z M 5 0 "/></g></g></g><g fill="#ffffff" fill-opacity="1"><g transform="translate(596.932783, 308.122563)"><g><path d="M 1.5 0 L 1.5 -10.40625 L 3.75 -10.40625 L 4.140625 -9.015625 C 4.484375 -9.503906 4.90625 -9.859375 5.40625 -10.078125 C 5.914062 -10.296875 6.550781 -10.40625 7.3125 -10.40625 L 8.453125 -10.40625 L 8.453125 -7.671875 L 7.296875 -7.671875 C 6.441406 -7.671875 5.765625 -7.4375 5.265625 -6.96875 C 4.765625 -6.507812 4.515625 -5.71875 4.515625 -4.59375 L 4.515625 0 Z M 1.5 0 "/></g></g></g><g fill="#ffffff" fill-opacity="1"><g transform="translate(608.807357, 308.122563)"><g><path d="M 4.984375 0.203125 C 3.753906 0.203125 2.78125 -0.0820312 2.0625 -0.65625 C 1.34375 -1.238281 0.984375 -2.03125 0.984375 -3.03125 C 0.984375 -4 1.304688 -4.769531 1.953125 -5.34375 C 2.597656 -5.914062 3.460938 -6.203125 4.546875 -6.203125 L 8.3125 -6.203125 L 8.3125 -6.6875 C 8.3125 -7.195312 8.125 -7.609375 7.75 -7.921875 C 7.382812 -8.234375 6.90625 -8.390625 6.3125 -8.390625 C 5.820312 -8.390625 5.40625 -8.273438 5.0625 -8.046875 C 4.71875 -7.828125 4.5 -7.53125 4.40625 -7.15625 L 1.5 -7.15625 C 1.6875 -8.289062 2.195312 -9.160156 3.03125 -9.765625 C 3.875 -10.378906 4.957031 -10.6875 6.28125 -10.6875 C 7.84375 -10.6875 9.0625 -10.289062 9.9375 -9.5 C 10.820312 -8.71875 11.265625 -7.640625 11.265625 -6.265625 L 11.265625 0 L 9.015625 0 L 8.6875 -1.203125 C 7.769531 -0.265625 6.535156 0.203125 4.984375 0.203125 Z M 3.96875 -3.15625 C 3.96875 -2.800781 4.117188 -2.515625 4.421875 -2.296875 C 4.734375 -2.078125 5.148438 -1.96875 5.671875 -1.96875 C 6.421875 -1.96875 7.039062 -2.179688 7.53125 -2.609375 C 8.03125 -3.046875 8.296875 -3.617188 8.328125 -4.328125 L 5.46875 -4.328125 C 5.019531 -4.328125 4.65625 -4.21875 4.375 -4 C 4.101562 -3.789062 3.96875 -3.507812 3.96875 -3.15625 Z M 3.96875 -3.15625 "/></g></g></g><g fill="#ffffff" fill-opacity="1"><g transform="translate(624.131312, 308.122563)"><g><path d="M 1.5 0 L 1.5 -10.40625 L 3.75 -10.40625 L 4.0625 -9.234375 C 4.488281 -9.722656 5 -10.085938 5.59375 -10.328125 C 6.195312 -10.566406 6.84375 -10.6875 7.53125 -10.6875 C 8.894531 -10.6875 9.960938 -10.265625 10.734375 -9.421875 C 11.503906 -8.578125 11.890625 -7.429688 11.890625 -5.984375 L 11.890625 0 L 8.890625 0 L 8.890625 -5.671875 C 8.890625 -6.441406 8.707031 -7.039062 8.34375 -7.46875 C 7.976562 -7.894531 7.472656 -8.109375 6.828125 -8.109375 C 6.140625 -8.109375 5.582031 -7.867188 5.15625 -7.390625 C 4.726562 -6.921875 4.515625 -6.273438 4.515625 -5.453125 L 4.515625 0 Z M 1.5 0 "/></g></g></g><g fill="#ffffff" fill-opacity="1"><g transform="translate(640.089636, 308.122563)"><g><path d="M 5.515625 0.28125 C 4.554688 0.28125 3.722656 0.128906 3.015625 -0.171875 C 2.316406 -0.484375 1.769531 -0.910156 1.375 -1.453125 C 0.988281 -1.992188 0.796875 -2.625 0.796875 -3.34375 L 3.75 -3.34375 C 3.757812 -2.925781 3.921875 -2.59375 4.234375 -2.34375 C 4.554688 -2.09375 4.992188 -1.96875 5.546875 -1.96875 C 6.023438 -1.96875 6.394531 -2.054688 6.65625 -2.234375 C 6.925781 -2.410156 7.0625 -2.648438 7.0625 -2.953125 C 7.0625 -3.285156 6.878906 -3.5625 6.515625 -3.78125 C 6.160156 -4 5.582031 -4.171875 4.78125 -4.296875 C 3.457031 -4.535156 2.484375 -4.921875 1.859375 -5.453125 C 1.242188 -5.984375 0.9375 -6.675781 0.9375 -7.53125 C 0.9375 -8.550781 1.316406 -9.332031 2.078125 -9.875 C 2.835938 -10.414062 3.914062 -10.6875 5.3125 -10.6875 C 6.695312 -10.6875 7.78125 -10.390625 8.5625 -9.796875 C 9.351562 -9.203125 9.785156 -8.351562 9.859375 -7.25 L 6.984375 -7.25 C 6.953125 -7.65625 6.785156 -7.960938 6.484375 -8.171875 C 6.191406 -8.390625 5.796875 -8.5 5.296875 -8.5 C 4.847656 -8.5 4.492188 -8.410156 4.234375 -8.234375 C 3.972656 -8.066406 3.84375 -7.832031 3.84375 -7.53125 C 3.84375 -7.21875 4.007812 -6.972656 4.34375 -6.796875 C 4.6875 -6.617188 5.300781 -6.4375 6.1875 -6.25 C 8.75 -5.726562 10.03125 -4.625 10.03125 -2.9375 C 10.03125 -1.945312 9.628906 -1.160156 8.828125 -0.578125 C 8.035156 -0.00390625 6.929688 0.28125 5.515625 0.28125 Z M 5.515625 0.28125 "/></g></g></g><g fill="#ffffff" fill-opacity="1"><g transform="translate(653.6889, 308.122563)"><g><path d="M 2.53125 -11.25 C 2.53125 -12.476562 2.863281 -13.414062 3.53125 -14.0625 C 4.207031 -14.71875 5.164062 -15.046875 6.40625 -15.046875 L 8.703125 -15.046875 L 8.703125 -12.671875 L 7.0625 -12.671875 C 6.519531 -12.671875 6.125 -12.539062 5.875 -12.28125 C 5.625 -12.019531 5.5 -11.617188 5.5 -11.078125 L 5.5 -10.40625 L 8.609375 -10.40625 L 8.609375 -7.953125 L 5.546875 -7.953125 L 5.546875 0 L 2.53125 0 L 2.53125 -7.953125 L 0.453125 -7.953125 L 0.453125 -10.40625 L 2.53125 -10.40625 Z M 2.53125 -11.25 "/></g></g></g><g fill="#ffffff" fill-opacity="1"><g transform="translate(665.345405, 308.122563)"><g><path d="M 6.625 0.28125 C 5.46875 0.28125 4.453125 0.0507812 3.578125 -0.40625 C 2.703125 -0.875 2.015625 -1.519531 1.515625 -2.34375 C 1.015625 -3.175781 0.765625 -4.132812 0.765625 -5.21875 C 0.765625 -6.300781 1.015625 -7.25 1.515625 -8.0625 C 2.015625 -8.882812 2.703125 -9.523438 3.578125 -9.984375 C 4.453125 -10.453125 5.46875 -10.6875 6.625 -10.6875 C 7.769531 -10.6875 8.78125 -10.453125 9.65625 -9.984375 C 10.539062 -9.523438 11.226562 -8.882812 11.71875 -8.0625 C 12.207031 -7.25 12.453125 -6.300781 12.453125 -5.21875 C 12.453125 -4.132812 12.207031 -3.175781 11.71875 -2.34375 C 11.226562 -1.519531 10.539062 -0.875 9.65625 -0.40625 C 8.78125 0.0507812 7.769531 0.28125 6.625 0.28125 Z M 3.75 -5.21875 C 3.75 -4.375 4.015625 -3.675781 4.546875 -3.125 C 5.085938 -2.582031 5.78125 -2.3125 6.625 -2.3125 C 7.46875 -2.3125 8.15625 -2.582031 8.6875 -3.125 C 9.21875 -3.675781 9.484375 -4.375 9.484375 -5.21875 C 9.484375 -6.070312 9.21875 -6.765625 8.6875 -7.296875 C 8.15625 -7.835938 7.46875 -8.109375 6.625 -8.109375 C 5.78125 -8.109375 5.085938 -7.835938 4.546875 -7.296875 C 4.015625 -6.765625 3.75 -6.070312 3.75 -5.21875 Z M 3.75 -5.21875 "/></g></g></g><g fill="#ffffff" fill-opacity="1"><g transform="translate(681.323567, 308.122563)"><g><path d="M 1.5 0 L 1.5 -10.40625 L 3.75 -10.40625 L 4.140625 -9.015625 C 4.484375 -9.503906 4.90625 -9.859375 5.40625 -10.078125 C 5.914062 -10.296875 6.550781 -10.40625 7.3125 -10.40625 L 8.453125 -10.40625 L 8.453125 -7.671875 L 7.296875 -7.671875 C 6.441406 -7.671875 5.765625 -7.4375 5.265625 -6.96875 C 4.765625 -6.507812 4.515625 -5.71875 4.515625 -4.59375 L 4.515625 0 Z M 1.5 0 "/></g></g></g><g fill="#ffffff" fill-opacity="1"><g transform="translate(693.198142, 308.122563)"><g><path d="M 1.5 0 L 1.5 -10.40625 L 3.75 -10.40625 L 4.046875 -9.34375 C 4.429688 -9.789062 4.894531 -10.125 5.4375 -10.34375 C 5.988281 -10.570312 6.59375 -10.6875 7.25 -10.6875 C 8.789062 -10.6875 9.9375 -10.117188 10.6875 -8.984375 C 11.113281 -9.523438 11.644531 -9.941406 12.28125 -10.234375 C 12.925781 -10.535156 13.644531 -10.6875 14.4375 -10.6875 C 15.769531 -10.6875 16.828125 -10.269531 17.609375 -9.4375 C 18.398438 -8.613281 18.796875 -7.488281 18.796875 -6.0625 L 18.796875 0 L 15.78125 0 L 15.78125 -5.703125 C 15.78125 -6.453125 15.597656 -7.039062 15.234375 -7.46875 C 14.867188 -7.894531 14.378906 -8.109375 13.765625 -8.109375 C 13.117188 -8.109375 12.601562 -7.882812 12.21875 -7.4375 C 11.832031 -6.988281 11.640625 -6.382812 11.640625 -5.625 L 11.640625 0 L 8.671875 0 L 8.671875 -5.703125 C 8.671875 -6.453125 8.488281 -7.039062 8.125 -7.46875 C 7.757812 -7.894531 7.265625 -8.109375 6.640625 -8.109375 C 5.992188 -8.109375 5.476562 -7.882812 5.09375 -7.4375 C 4.707031 -6.988281 4.515625 -6.382812 4.515625 -5.625 L 4.515625 0 Z M 1.5 0 "/></g></g></g><g fill="#ffffff" fill-opacity="1"><g transform="translate(716.055251, 308.122563)"><g><path d="M 4.984375 0.203125 C 3.753906 0.203125 2.78125 -0.0820312 2.0625 -0.65625 C 1.34375 -1.238281 0.984375 -2.03125 0.984375 -3.03125 C 0.984375 -4 1.304688 -4.769531 1.953125 -5.34375 C 2.597656 -5.914062 3.460938 -6.203125 4.546875 -6.203125 L 8.3125 -6.203125 L 8.3125 -6.6875 C 8.3125 -7.195312 8.125 -7.609375 7.75 -7.921875 C 7.382812 -8.234375 6.90625 -8.390625 6.3125 -8.390625 C 5.820312 -8.390625 5.40625 -8.273438 5.0625 -8.046875 C 4.71875 -7.828125 4.5 -7.53125 4.40625 -7.15625 L 1.5 -7.15625 C 1.6875 -8.289062 2.195312 -9.160156 3.03125 -9.765625 C 3.875 -10.378906 4.957031 -10.6875 6.28125 -10.6875 C 7.84375 -10.6875 9.0625 -10.289062 9.9375 -9.5 C 10.820312 -8.71875 11.265625 -7.640625 11.265625 -6.265625 L 11.265625 0 L 9.015625 0 L 8.6875 -1.203125 C 7.769531 -0.265625 6.535156 0.203125 4.984375 0.203125 Z M 3.96875 -3.15625 C 3.96875 -2.800781 4.117188 -2.515625 4.421875 -2.296875 C 4.734375 -2.078125 5.148438 -1.96875 5.671875 -1.96875 C 6.421875 -1.96875 7.039062 -2.179688 7.53125 -2.609375 C 8.03125 -3.046875 8.296875 -3.617188 8.328125 -4.328125 L 5.46875 -4.328125 C 5.019531 -4.328125 4.65625 -4.21875 4.375 -4 C 4.101562 -3.789062 3.96875 -3.507812 3.96875 -3.15625 Z M 3.96875 -3.15625 "/></g></g></g><g fill="#ffffff" fill-opacity="1"><g transform="translate(731.379206, 308.122563)"><g><path d="M 6.53125 0 C 5.207031 0 4.191406 -0.335938 3.484375 -1.015625 C 2.773438 -1.703125 2.421875 -2.679688 2.421875 -3.953125 L 2.421875 -7.953125 L 0.390625 -7.953125 L 0.390625 -10.40625 L 1.328125 -10.40625 C 1.898438 -10.40625 2.285156 -10.5 2.484375 -10.6875 C 2.691406 -10.875 2.835938 -11.234375 2.921875 -11.765625 L 3.09375 -13.109375 L 5.4375 -13.109375 L 5.4375 -10.40625 L 8.28125 -10.40625 L 8.28125 -7.953125 L 5.4375 -7.953125 L 5.4375 -4.40625 C 5.4375 -3.21875 6.015625 -2.625 7.171875 -2.625 L 8.421875 -2.625 L 8.421875 0 Z M 6.53125 0 "/></g></g></g><g fill="#ffffff" fill-opacity="1"><g transform="translate(743.392547, 308.122563)"><g><path d="M 1.5 0 L 1.5 -10.40625 L 4.515625 -10.40625 L 4.515625 0 Z M 1.078125 -13.78125 C 1.078125 -14.332031 1.253906 -14.785156 1.609375 -15.140625 C 1.972656 -15.492188 2.441406 -15.671875 3.015625 -15.671875 C 3.597656 -15.671875 4.066406 -15.492188 4.421875 -15.140625 C 4.773438 -14.785156 4.953125 -14.332031 4.953125 -13.78125 C 4.953125 -13.226562 4.773438 -12.773438 4.421875 -12.421875 C 4.066406 -12.066406 3.597656 -11.890625 3.015625 -11.890625 C 2.441406 -11.890625 1.972656 -12.066406 1.609375 -12.421875 C 1.253906 -12.773438 1.078125 -13.226562 1.078125 -13.78125 Z M 1.078125 -13.78125 "/></g></g></g><g fill="#ffffff" fill-opacity="1"><g transform="translate(752.174577, 308.122563)"><g><path d="M 6.625 0.28125 C 5.46875 0.28125 4.453125 0.0507812 3.578125 -0.40625 C 2.703125 -0.875 2.015625 -1.519531 1.515625 -2.34375 C 1.015625 -3.175781 0.765625 -4.132812 0.765625 -5.21875 C 0.765625 -6.300781 1.015625 -7.25 1.515625 -8.0625 C 2.015625 -8.882812 2.703125 -9.523438 3.578125 -9.984375 C 4.453125 -10.453125 5.46875 -10.6875 6.625 -10.6875 C 7.769531 -10.6875 8.78125 -10.453125 9.65625 -9.984375 C 10.539062 -9.523438 11.226562 -8.882812 11.71875 -8.0625 C 12.207031 -7.25 12.453125 -6.300781 12.453125 -5.21875 C 12.453125 -4.132812 12.207031 -3.175781 11.71875 -2.34375 C 11.226562 -1.519531 10.539062 -0.875 9.65625 -0.40625 C 8.78125 0.0507812 7.769531 0.28125 6.625 0.28125 Z M 3.75 -5.21875 C 3.75 -4.375 4.015625 -3.675781 4.546875 -3.125 C 5.085938 -2.582031 5.78125 -2.3125 6.625 -2.3125 C 7.46875 -2.3125 8.15625 -2.582031 8.6875 -3.125 C 9.21875 -3.675781 9.484375 -4.375 9.484375 -5.21875 C 9.484375 -6.070312 9.21875 -6.765625 8.6875 -7.296875 C 8.15625 -7.835938 7.46875 -8.109375 6.625 -8.109375 C 5.78125 -8.109375 5.085938 -7.835938 4.546875 -7.296875 C 4.015625 -6.765625 3.75 -6.070312 3.75 -5.21875 Z M 3.75 -5.21875 "/></g></g></g><g fill="#ffffff" fill-opacity="1"><g transform="translate(768.152739, 308.122563)"><g><path d="M 1.5 0 L 1.5 -10.40625 L 3.75 -10.40625 L 4.0625 -9.234375 C 4.488281 -9.722656 5 -10.085938 5.59375 -10.328125 C 6.195312 -10.566406 6.84375 -10.6875 7.53125 -10.6875 C 8.894531 -10.6875 9.960938 -10.265625 10.734375 -9.421875 C 11.503906 -8.578125 11.890625 -7.429688 11.890625 -5.984375 L 11.890625 0 L 8.890625 0 L 8.890625 -5.671875 C 8.890625 -6.441406 8.707031 -7.039062 8.34375 -7.46875 C 7.976562 -7.894531 7.472656 -8.109375 6.828125 -8.109375 C 6.140625 -8.109375 5.582031 -7.867188 5.15625 -7.390625 C 4.726562 -6.921875 4.515625 -6.273438 4.515625 -5.453125 L 4.515625 0 Z M 1.5 0 "/></g></g></g></svg>