<svg xmlns="http://www.w3.org/2000/svg" xmlns:xlink="http://www.w3.org/1999/xlink" width="500" zoomAndPan="magnify" viewBox="0 0 375 374.999991" height="500" preserveAspectRatio="xMidYMid meet" version="1.0"><defs><clipPath id="2eaad187b2"><path d="M 182 146.148438 L 257 146.148438 L 257 304.082031 L 182 304.082031 Z M 182 146.148438 " clip-rule="nonzero"/></clipPath><clipPath id="fb916ea9a5"><path d="M 67.183594 81.007812 L 303.023438 81.007812 L 303.023438 304.082031 L 67.183594 304.082031 Z M 67.183594 81.007812 " clip-rule="nonzero"/></clipPath></defs><g clip-path="url(#2eaad187b2)"><path fill="#caa36d" d="M 209.960938 304.617188 L 209.960938 215.8125 C 209.960938 214.746094 210.496094 213.683594 211.558594 213.152344 L 228.308594 202.78125 C 228.574219 202.515625 228.839844 202.515625 229.105469 202.78125 C 229.371094 203.046875 229.371094 203.046875 229.371094 203.3125 L 229.371094 304.351562 L 255.960938 304.351562 L 256.492188 146.679688 C 256.492188 146.414062 256.492188 146.414062 256.226562 146.148438 C 255.960938 145.882812 255.960938 146.148438 255.695312 146.148438 L 184.171875 191.617188 C 183.109375 192.414062 182.3125 193.476562 182.3125 194.804688 L 182.578125 304.617188 Z M 209.960938 304.617188 " fill-opacity="1" fill-rule="nonzero"/></g><g clip-path="url(#fb916ea9a5)"><path fill="#caa36d" d="M 303.023438 173.535156 L 302.222656 138.4375 L 301.691406 128.070312 C 301.691406 121.953125 301.691406 115.574219 301.425781 108.925781 C 301.160156 98.558594 296.640625 90.847656 287.867188 85.261719 C 278.292969 79.148438 268.457031 79.414062 258.085938 85.792969 C 235.753906 99.355469 214.484375 112.648438 192.945312 125.675781 C 191.617188 126.207031 190.554688 127.007812 189.488281 127.539062 C 181.777344 132.324219 174.335938 136.84375 166.890625 141.363281 C 161.570312 144.554688 156.253906 147.746094 150.9375 150.9375 C 149.339844 152 147.746094 153.0625 146.152344 154.125 C 124.878906 167.15625 103.875 180.183594 82.339844 192.679688 C 67.714844 201.1875 67.449219 211.558594 67.449219 228.308594 C 67.714844 253.300781 67.714844 278.027344 67.714844 301.691406 L 67.714844 304.351562 L 95.898438 304.351562 L 95.898438 224.320312 C 95.898438 223.253906 96.429688 222.722656 96.964844 222.191406 L 136.046875 197.996094 C 136.3125 234.6875 136.3125 270.316406 136.046875 304.617188 L 164.496094 304.617188 L 164.496094 182.308594 C 164.496094 181.511719 164.761719 180.714844 165.558594 180.183594 L 272.710938 114.242188 C 272.976562 113.976562 273.242188 113.976562 273.507812 114.242188 C 273.773438 114.242188 274.039062 114.511719 274.039062 114.777344 C 274.039062 115.042969 274.304688 115.308594 274.304688 115.574219 C 274.039062 178.320312 274.039062 241.335938 274.039062 304.351562 L 302.753906 304.351562 C 302.753906 303.816406 302.753906 303.550781 302.753906 303.019531 C 302.753906 259.148438 302.753906 216.078125 302.753906 173.800781 C 303.023438 174.066406 303.023438 173.800781 303.023438 173.535156 Z M 303.023438 173.535156 " fill-opacity="1" fill-rule="nonzero"/></g><path fill="#caa36d" d="M 303.289062 292.917969 L 303.023438 68.246094 L 266.59375 82.070312 L 284.941406 109.191406 Z M 303.289062 292.917969 " fill-opacity="1" fill-rule="nonzero"/><path fill="#caa36d" d="M 235.488281 99.621094 L 282.28125 70.640625 L 303.289062 58.675781 L 303.023438 81.007812 L 302.753906 120.359375 L 269.253906 104.9375 Z M 235.488281 99.621094 " fill-opacity="1" fill-rule="nonzero"/><path fill="#caa36d" d="M 303.023438 304.617188 L 303.289062 58.675781 L 235.488281 99.621094 L 269.253906 104.9375 L 284.941406 109.191406 L 290.523438 128.335938 L 284.941406 166.089844 Z M 303.023438 304.617188 " fill-opacity="1" fill-rule="nonzero"/><path fill="#caa36d" d="M 67.449219 304.617188 L 67.183594 203.046875 L 82.074219 192.945312 L 105.472656 202.25 L 94.039062 217.9375 Z M 67.449219 304.617188 " fill-opacity="1" fill-rule="nonzero"/></svg>